<?xml version="1.0" encoding="UTF-8"?>
<svg id="layer1" xmlns="http://www.w3.org/2000/svg" version="1.1" xmlns:xlink="http://www.w3.org/1999/xlink" viewBox="0 0 160 160">
  <defs>
    <style>
      .st0 { fill: #f38626; }
      .st1 { fill: url(#gradient1); }
      .st2 { fill: #080502; }
      .st3 { fill: #fdc53c; }
      .st4 { fill: none; stroke: #000; stroke-width: .3px; }
    </style>
    <linearGradient id="gradient1" x1="-873.22" y1="617.98" x2="-871.87" y2="616.63" gradientTransform="translate(132733 93937) scale(152 -152)" gradientUnits="userSpaceOnUse">
      <stop offset="0" stop-color="#fd4624"/>
      <stop offset="1" stop-color="#ffff4c"/>
    </linearGradient>
  </defs>
  <g>
    <rect class="st1" x="4" y="4" width="152" height="152" rx="18" ry="18"/>
    <line class="st4" x1="4" y1="-50" x2="4" y2="-14"/>
    <line class="st4" x1="-50" y1="4" x2="-14" y2="4"/>
    <line class="st4" x1="-50" y1="156" x2="-14" y2="156"/>
    <line class="st4" x1="4" y1="210" x2="4" y2="174"/>
    <line class="st4" x1="156" y1="-50" x2="156" y2="-14"/>
    <line class="st4" x1="210" y1="4" x2="174" y2="4"/>
    <line class="st4" x1="210" y1="156" x2="174" y2="156"/>
    <line class="st4" x1="156" y1="210" x2="156" y2="174"/>
  </g>
  <g>
    <path class="st2" d="M118.8,96.41c-.88.87-1.19,4.2-3.37,6.13-5.76,5.1-12.33,1.91-16.42-3.4-10.45,12.47-26.71,23.95-36.51,36.47-3.31,4.23-3.24,10.6-11.38,10.42-7.01-.15-10.04-4.97-10.65-11.37-2.82-30.01,4.05-68.19.08-97.08-.79-5.77-6.07-6.65-3.38-15.3,4.12-13.24,28.42-7.33,38.33-4.65,15.79,4.27,33.51,14.42,45.53,25.47,5.17,4.75,15.03,14.33,14.54,21.51s-7.14,8.96-7.9,11.18c-1.34,3.9,1.03,9.44-1.39,14.61-2,4.26-5.86,4.43-7.48,6.02ZM49.51,31.12v106.01c3.55.94,3.17-1.66,4-5.01l53-52c.24,4.94-2.36,16.94,4,16v-14.5c0-1.07,3.45-2.09,4-1.5.26.27-.39,5.65.92,7.41.63.85,2.81.85,3.08.59.56-.54-.07-13.31-.04-15.56.03-1.98,1.08-4.15,1.04-5.45,3.36.55,8.2,0,7.78-4.35-.22-2.31-11.76-13.44-14.31-15.62-15.94-13.62-39.66-24.86-60.97-25.11-9.22-.11-8.97,7.89-2.5,9.08Z"/>
    <path class="st3" d="M119.51,67.12c.04,1.3-1.01,3.47-1.04,5.45-.03,2.25.6,15.02.04,15.56-.27.26-2.45.26-3.08-.59-1.3-1.76-.66-7.14-.92-7.41-.55-.59-4,.43-4,1.5v14.5c-6.36.94-3.76-11.06-4-16-.03-.69.68-5-1-3.5l-51.06,50.97c-1.43,1.3-.63,3.28-.94,4.54-.83,3.35-.45,5.94-4,5.01V31.12c2.75.51,6.5-.39,9.48.02,18.43,2.53,34.52,10.37,48.52,22.47,2.42,2.09,11.91,11.15,11.99,13.51ZM60.21,39.33c-8.78,2.01-9.14,16.73-.76,19.33,18.12,5.62,19.32-23.58.76-19.33ZM80.22,64.33c-9.6,2.19-8.55,19.01,2.8,19.84,15.14,1.11,15.73-24.07-2.8-19.84ZM61.25,88.33c-11.76,2.28-10.38,21.24,2.49,20.55,14.32-.77,12.46-23.45-2.49-20.55Z"/>
    <path class="st0" d="M119.51,67.12c-.08-2.36-9.57-11.42-11.99-13.51-14.01-12.1-30.09-19.94-48.52-22.47-2.98-.41-6.73.49-9.49-.02-6.47-1.19-6.72-9.19,2.5-9.08,21.31.25,45.03,11.49,60.97,25.11,2.55,2.18,14.09,13.32,14.31,15.62.42,4.35-4.42,4.9-7.78,4.35Z"/>
    <path class="st0" d="M106.51,80.12l-53,52c.31-1.25-.49-3.24.94-4.54l51.06-50.97c1.68-1.5.97,2.82,1,3.5Z"/>
  </g>
</svg>
